<svg width="22" height="22" viewBox="0 0 22 22" fill="none" xmlns="http://www.w3.org/2000/svg">
<path d="M17.1503 7.52579C17.065 7.43987 16.9637 7.37167 16.852 7.32514C16.7403 7.2786 16.6204 7.25464 16.4994 7.25464C16.3784 7.25464 16.2586 7.2786 16.1469 7.32514C16.0352 7.37167 15.9338 7.43987 15.8486 7.52579L11.6503 11.7241C11.565 11.81 11.4637 11.8782 11.352 11.9248C11.2402 11.9713 11.1204 11.9953 10.9994 11.9953C10.8784 11.9953 10.7586 11.9713 10.6469 11.9248C10.5352 11.8782 10.4338 11.81 10.3486 11.7241L6.15026 7.52579C6.06504 7.43987 5.96366 7.37167 5.85195 7.32514C5.74025 7.2786 5.62044 7.25464 5.49942 7.25464C5.37841 7.25464 5.2586 7.2786 5.1469 7.32514C5.03519 7.37167 4.93381 7.43987 4.84859 7.52579C4.67786 7.69754 4.58203 7.92987 4.58203 8.17204C4.58203 8.41421 4.67786 8.64654 4.84859 8.81828L9.05609 13.0258C9.57172 13.5408 10.2707 13.83 10.9994 13.83C11.7282 13.83 12.4271 13.5408 12.9428 13.0258L17.1503 8.81828C17.321 8.64654 17.4168 8.41421 17.4168 8.17204C17.4168 7.92987 17.321 7.69754 17.1503 7.52579Z" fill="#8C8987"/>
</svg>
