<svg width="137" height="24" viewBox="0 0 137 24" fill="none" xmlns="http://www.w3.org/2000/svg">
<g clip-path="url(#clip0_354_4981)">
<path d="M12 24C9.62663 24 7.30655 23.2962 5.33316 21.9776C3.35977 20.6591 1.8217 18.7849 0.913451 16.5922C0.00519943 14.3995 -0.232441 11.9867 0.230582 9.65892C0.693605 7.33115 1.83649 5.19295 3.51472 3.51472C5.19295 1.83649 7.33115 0.693605 9.65892 0.230582C11.9867 -0.232441 14.3995 0.00519943 16.5922 0.913451C18.7849 1.8217 20.6591 3.35977 21.9776 5.33316C23.2962 7.30655 24 9.62663 24 12C23.9966 15.1815 22.7312 18.2318 20.4815 20.4815C18.2318 22.7312 15.1815 23.9966 12 24ZM12 2.00001C10.0222 2.00001 8.08879 2.5865 6.4443 3.68531C4.79981 4.78412 3.51809 6.34591 2.76121 8.17317C2.00433 10.0004 1.8063 12.0111 2.19215 13.9509C2.578 15.8907 3.53041 17.6725 4.92894 19.0711C6.32746 20.4696 8.10929 21.422 10.0491 21.8079C11.9889 22.1937 13.9996 21.9957 15.8268 21.2388C17.6541 20.4819 19.2159 19.2002 20.3147 17.5557C21.4135 15.9112 22 13.9778 22 12C21.9971 9.34873 20.9426 6.80689 19.0679 4.93215C17.1931 3.05742 14.6513 2.00292 12 2.00001Z" fill="white"/>
<path d="M13 14.9997H11V14.2567C10.9852 13.5511 11.1596 12.8544 11.5049 12.239C11.8503 11.6235 12.3541 11.1117 12.964 10.7567C13.3335 10.5532 13.6291 10.2381 13.8087 9.85642C13.9883 9.47476 14.0427 9.04609 13.964 8.63168C13.8861 8.23689 13.6922 7.87428 13.4072 7.59017C13.1222 7.30607 12.759 7.11337 12.364 7.03668C12.0757 6.98332 11.7792 6.994 11.4955 7.06794C11.2118 7.14189 10.9479 7.27731 10.7223 7.4646C10.4968 7.65189 10.3151 7.88648 10.1903 8.15176C10.0655 8.41703 10.0005 8.70651 10 8.99968H8C8.00025 8.29419 8.18708 7.60131 8.54155 6.99133C8.89602 6.38136 9.40551 5.87598 10.0183 5.52647C10.6312 5.17696 11.3255 4.99575 12.031 5.00122C12.7365 5.00669 13.428 5.19865 14.0353 5.55762C14.6426 5.9166 15.1442 6.42982 15.4892 7.04522C15.8342 7.66062 16.0102 8.35631 15.9995 9.06173C15.9888 9.76714 15.7918 10.4572 15.4283 11.0618C15.0648 11.6665 14.5479 12.1643 13.93 12.5047C13.6347 12.6893 13.3933 12.9484 13.2301 13.256C13.0668 13.5635 12.9874 13.9087 13 14.2567V14.9997Z" fill="white"/>
<path d="M13 16.9996H11V18.9996H13V16.9996Z" fill="white"/>
</g>
<defs>
<clipPath id="clip0_354_4981">
<rect width="24" height="24" fill="white"/>
</clipPath>
</defs>
</svg>
