<svg xmlns="http://www.w3.org/2000/svg" width="35" height="35" viewBox="0 0 35 35" fill="none">
  <g clip-path="url(#clip0_1991_8634)">
    <path fill-rule="evenodd" clip-rule="evenodd" d="M24.0069 0.0513099C23.7207 -0.0644628 23.3999 0.0872321 23.2944 0.379835L21.6521 4.93726C24.1302 5.8571 26.2501 7.57209 27.6804 9.82912C29.2392 12.2891 29.876 15.2309 29.4759 18.1235C29.0758 21.0162 27.6651 23.669 25.4984 25.6033C23.3316 27.5375 20.5517 28.6257 17.6603 28.6715C14.7689 28.7173 11.9565 27.7176 9.73089 25.8528C7.50524 23.9881 6.01286 21.3812 5.52318 18.5027C5.0335 15.6241 5.57875 12.6636 7.06051 10.1555C8.44678 7.80906 10.5672 6.00324 13.0789 5.01732C13.1841 4.97605 13.2931 4.9713 13.3941 4.99632L11.7365 0.368508C11.6316 0.0756995 11.3111 -0.0766235 11.0247 0.0385881C7.38416 1.50301 4.32993 4.16209 2.35946 7.59577C0.295542 11.1923 -0.447298 15.4084 0.261495 19.5033C0.970287 23.5982 3.08535 27.3097 6.23497 29.9857C9.38463 32.6616 13.3673 34.1306 17.483 34.1346C21.5987 34.1387 25.5842 32.6774 28.739 30.0077C31.8938 27.338 34.016 23.6306 34.7326 19.5371C35.4493 15.4436 34.7145 11.226 32.6575 7.62542C30.6937 4.18792 27.6445 1.52286 24.0069 0.0513099Z" fill="white"/>
    <path d="M19.6161 10.588C19.7216 10.2954 20.0432 10.1424 20.3232 10.2727C21.5863 10.8606 22.6432 11.831 23.3426 13.0558C24.1353 14.4439 24.4182 16.0698 24.1414 17.6478C23.8646 19.2256 23.046 20.6545 21.8293 21.683C20.6127 22.7116 19.0759 23.274 17.4894 23.2715C15.9028 23.2689 14.3679 22.7014 13.1546 21.6688C11.9413 20.6363 11.1272 19.2048 10.8555 17.626C10.5838 16.0472 10.8719 14.4222 11.6691 13.0367C12.3724 11.8142 13.4324 10.8472 14.6974 10.2635C14.9778 10.1341 15.2989 10.2881 15.4034 10.5811L16.9778 14.9947C17.1548 15.4908 17.849 15.4919 18.0276 14.9964L19.6161 10.588Z" fill="white"/>
  </g>
  <defs>
    <clipPath id="clip0_1991_8634">
      <rect width="35" height="34.1667" fill="white"/>
    </clipPath>
  </defs>
</svg>
